<svg width="32" height="32" viewBox="0 0 32 32" fill="none" xmlns="http://www.w3.org/2000/svg">
<path d="M24.7667 12.3626V31.6614H31.843V12.3626H24.7667ZM30.5564 30.3749H26.0533V13.6492H30.5564V30.3749Z" fill="#1B73E9"/>
<path d="M17.0471 15.5791V31.6615H23.4801V15.5791H17.0471ZM22.1935 30.3749H18.3337V16.8657H22.1935V30.3749Z" fill="#1B73E9"/>
<path d="M9.32751 18.7955V31.6614H15.7605V18.7955H9.32751ZM14.4739 30.3748H10.6141V20.0821H14.4739V30.3748Z" fill="#1B73E9"/>
<path d="M0.9646 22.6553V31.6615H8.04085V22.6553H0.9646ZM6.75426 30.3749H2.25119V23.9419H6.75426V30.3749Z" fill="#1B73E9"/>
<path d="M22.1338 0.820038L21.7016 2.03174L26.3822 3.70061L4.51794 15.24L5.11852 16.3778L26.8161 4.92638L25.2105 9.42964L26.4223 9.86198L28.7989 3.19652L22.1338 0.820038Z" fill="#1B73E9"/>
</svg>
