<svg width="33" height="30" viewBox="0 0 33 30" fill="none" xmlns="http://www.w3.org/2000/svg">
<path fill-rule="evenodd" clip-rule="evenodd" d="M31.6631 19.0113C31.9888 19.0341 32.2911 19.1736 32.5037 19.3989C32.7163 19.6243 32.8217 19.9171 32.7968 20.213L32.4846 23.96C32.3536 25.4555 31.6091 26.8517 30.3986 27.872C29.1881 28.8922 27.6 29.4621 25.9489 29.4686H6.89058C5.23893 29.4628 3.64998 28.8933 2.43879 27.873C1.2276 26.8527 0.482628 25.456 0.351596 23.96L0.0394336 20.213C0.0273314 20.0662 0.0471832 19.9186 0.0978553 19.7787C0.148527 19.6389 0.229027 19.5094 0.334757 19.3978C0.440486 19.2862 0.569375 19.1947 0.714061 19.1283C0.858747 19.062 1.0164 19.0222 1.178 19.0113C1.85983 18.9889 2.44801 19.4263 2.50059 20.0443L2.81111 23.7883C2.89265 24.7221 3.35719 25.594 4.11273 26.2313C4.86827 26.8686 5.85968 27.2248 6.89058 27.2293H25.9489C26.9799 27.2251 27.9715 26.869 28.7272 26.2317C29.4828 25.5943 29.9472 24.7222 30.0284 23.7883L30.3405 20.0443C30.3931 19.4263 30.9961 18.9874 31.6631 19.0113ZM18.5392 0C19.7205 0.00141123 20.861 0.39281 21.7483 1.10134C22.6357 1.80986 23.2095 2.78724 23.3629 3.85152H26.5995C30.0415 3.85152 32.8428 6.40277 32.8428 9.54072V14.6746C32.8426 14.87 32.786 15.062 32.6788 15.2315C32.5716 15.4009 32.4174 15.5419 32.2316 15.6404C28.1768 17.7976 23.0392 19.0575 17.652 19.2247V21.9104C17.652 22.2073 17.5221 22.4921 17.2911 22.7021C17.06 22.912 16.7465 23.03 16.4197 23.03C16.0929 23.03 15.7795 22.912 15.5484 22.7021C15.3173 22.4921 15.1875 22.2073 15.1875 21.9104V19.2247C9.80354 19.059 4.66601 17.8006 0.607898 15.6404C0.422489 15.5418 0.268788 15.4007 0.162124 15.2312C0.0554595 15.0617 -0.000439192 14.8698 2.59854e-06 14.6746V9.52579C0.00391749 8.0199 0.66492 6.57689 1.83806 5.51318C3.0112 4.44948 4.60071 3.85191 6.25804 3.85152H9.47824C9.63159 2.78749 10.2051 1.81032 11.0922 1.10183C11.9792 0.393335 13.1193 0.00177289 14.3003 0L18.5392 0ZM26.5979 6.09077H6.25804C5.25377 6.08998 4.29017 6.4512 3.57866 7.09517C2.86715 7.73915 2.46585 8.61329 2.4628 9.52579V14.0222C6.36319 15.948 11.2789 17.0034 16.3967 17.0049L16.4197 17.0034H16.4378L17.2199 16.9959C22.06 16.8914 26.6767 15.8479 30.3767 14.0222V9.54072C30.3784 8.62809 29.9815 7.75215 29.2729 7.10529C28.5644 6.45843 27.6023 6.09354 26.5979 6.09077ZM18.5392 2.23925H14.3003C13.1946 2.23925 12.2598 2.92297 11.9838 3.85152H20.8557C20.7177 3.38911 20.4161 2.98077 19.9975 2.68943C19.5789 2.39808 19.0665 2.2399 18.5392 2.23925Z" fill="#1B73E9"/>
</svg>
