<svg width="81" height="81" viewBox="0 0 81 81" fill="none" xmlns="http://www.w3.org/2000/svg">
<rect x="0.121094" y="0.879883" width="80" height="80" rx="40" fill="#FFCB0B" fill-opacity="0.3"/>
<rect x="5.12109" y="5.87988" width="70" height="70" rx="35" fill="#FFCB0B"/>
<path d="M40.0077 53.7279C38.0688 53.7279 36.3494 53.3965 34.8497 52.7336C33.3582 52.0624 32.1816 51.1385 31.3198 49.9619C30.4581 48.7853 30.0189 47.4305 30.0024 45.8976H36.192C36.2168 46.4528 36.395 46.9458 36.7264 47.3767C37.0579 47.7993 37.5095 48.1307 38.0812 48.371C38.6529 48.6113 39.3034 48.7314 40.0325 48.7314C40.7617 48.7314 41.4039 48.603 41.959 48.3461C42.5225 48.081 42.9616 47.7206 43.2765 47.2648C43.5914 46.8008 43.7447 46.2705 43.7364 45.6739C43.7447 45.0773 43.5748 44.547 43.2268 44.083C42.8788 43.619 42.3858 43.2586 41.7477 43.0017C41.118 42.7448 40.3723 42.6164 39.5105 42.6164H37.0372V38.2414H39.5105C40.2645 38.2414 40.9274 38.1171 41.4992 37.8685C42.0792 37.6199 42.5308 37.2719 42.8539 36.8245C43.1771 36.3688 43.3345 35.8467 43.3262 35.2584C43.3345 34.6867 43.1978 34.1854 42.9161 33.7545C42.6426 33.3154 42.2573 32.9756 41.7602 32.7354C41.2713 32.4951 40.7037 32.3749 40.0574 32.3749C39.3779 32.3749 38.7606 32.4951 38.2055 32.7354C37.6586 32.9756 37.2236 33.3154 36.9004 33.7545C36.5773 34.1937 36.4074 34.7033 36.3908 35.2833H30.5119C30.5285 33.767 30.9511 32.4329 31.7797 31.2812C32.6083 30.1211 33.7352 29.2138 35.1604 28.5592C36.5939 27.9046 38.2262 27.5773 40.0574 27.5773C41.8803 27.5773 43.4837 27.8963 44.8674 28.5344C46.2512 29.1724 47.3283 30.0424 48.0989 31.1444C48.8695 32.2382 49.2548 33.4769 49.2548 34.8607C49.2631 36.2942 48.795 37.4749 47.8504 38.403C46.914 39.331 45.7084 39.9027 44.2335 40.1182V40.317C46.2056 40.549 47.6929 41.1871 48.6955 42.2311C49.7064 43.2751 50.2077 44.5802 50.1994 46.1462C50.1994 47.6211 49.7644 48.9303 48.8944 50.0738C48.0327 51.209 46.8312 52.1038 45.29 52.7584C43.7571 53.4047 41.9963 53.7279 40.0077 53.7279Z" fill="white"/>
</svg>
