<svg width="81" height="81" viewBox="0 0 81 81" fill="none" xmlns="http://www.w3.org/2000/svg">
<rect x="0.121094" y="0.879883" width="80" height="80" rx="40" fill="#FFCB0B" fill-opacity="0.3"/>
<rect x="5.12109" y="5.87988" width="70" height="70" rx="35" fill="#FFCB0B"/>
<path d="M31.3382 53.3799V48.9552L40.6226 40.8266C41.3187 40.1969 41.9111 39.621 42.4 39.099C42.8889 38.5687 43.2617 38.0384 43.5186 37.5081C43.7755 36.9695 43.9039 36.3853 43.9039 35.7556C43.9039 35.0513 43.7506 34.4505 43.444 33.9534C43.1374 33.4479 42.7149 33.0585 42.1763 32.7851C41.6377 32.5116 41.0204 32.3749 40.3244 32.3749C39.62 32.3749 39.0027 32.5199 38.4724 32.8099C37.9421 33.0916 37.5278 33.5018 37.2295 34.0404C36.9395 34.579 36.7945 35.2336 36.7945 36.0042H30.9653C30.9653 34.2724 31.3548 32.7768 32.1337 31.5173C32.9125 30.2578 34.0063 29.2884 35.4149 28.6089C36.8318 27.9212 38.4766 27.5773 40.3492 27.5773C42.2798 27.5773 43.9578 27.9005 45.3829 28.5468C46.8081 29.1931 47.9102 30.0963 48.6891 31.2563C49.4762 32.4081 49.8698 33.7462 49.8698 35.2709C49.8698 36.2403 49.6751 37.2015 49.2856 38.1544C48.8962 39.1073 48.196 40.1596 47.1851 41.3113C46.1825 42.4631 44.7574 43.8427 42.9096 45.4502L39.8645 48.2591V48.4207H50.1805V53.3799H31.3382Z" fill="white"/>
</svg>
