<svg width="69" height="69" viewBox="0 0 69 69" fill="none" xmlns="http://www.w3.org/2000/svg">
<circle cx="1.70068" cy="2.11475" r="1.5" fill="black"/>
<circle cx="1.70068" cy="15.1147" r="1.5" fill="black"/>
<circle cx="1.70068" cy="28.1147" r="1.5" fill="black"/>
<circle cx="1.70068" cy="41.1147" r="1.5" fill="black"/>
<circle cx="1.70068" cy="54.1147" r="1.5" fill="black"/>
<circle cx="1.70068" cy="67.1147" r="1.5" fill="black"/>
<circle cx="14.7007" cy="2.11475" r="1.5" fill="black"/>
<circle cx="14.7007" cy="15.1147" r="1.5" fill="black"/>
<circle cx="14.7007" cy="28.1147" r="1.5" fill="black"/>
<circle cx="14.7007" cy="41.1147" r="1.5" fill="black"/>
<circle cx="14.7007" cy="54.1147" r="1.5" fill="black"/>
<circle cx="14.7007" cy="67.1147" r="1.5" fill="black"/>
<circle cx="27.7007" cy="2.11475" r="1.5" fill="black"/>
<circle cx="27.7007" cy="15.1147" r="1.5" fill="black"/>
<circle cx="27.7007" cy="28.1147" r="1.5" fill="black"/>
<circle cx="27.7007" cy="41.1147" r="1.5" fill="black"/>
<circle cx="27.7007" cy="54.1147" r="1.5" fill="black"/>
<circle cx="27.7007" cy="67.1147" r="1.5" fill="black"/>
<circle cx="40.7007" cy="2.11475" r="1.5" fill="black"/>
<circle cx="40.7007" cy="15.1147" r="1.5" fill="black"/>
<circle cx="40.7007" cy="28.1147" r="1.5" fill="black"/>
<circle cx="40.7007" cy="41.1147" r="1.5" fill="black"/>
<circle cx="40.7007" cy="54.1147" r="1.5" fill="black"/>
<circle cx="40.7007" cy="67.1147" r="1.5" fill="black"/>
<circle cx="53.7007" cy="2.11475" r="1.5" fill="black"/>
<circle cx="53.7007" cy="15.1147" r="1.5" fill="black"/>
<circle cx="53.7007" cy="28.1147" r="1.5" fill="black"/>
<circle cx="53.7007" cy="41.1147" r="1.5" fill="black"/>
<circle cx="53.7007" cy="54.1147" r="1.5" fill="black"/>
<circle cx="53.7007" cy="67.1147" r="1.5" fill="black"/>
<circle cx="66.7007" cy="2.11475" r="1.5" fill="black"/>
<circle cx="66.7007" cy="15.1147" r="1.5" fill="black"/>
<circle cx="66.7007" cy="28.1147" r="1.5" fill="black"/>
<circle cx="66.7007" cy="41.1147" r="1.5" fill="black"/>
<circle cx="66.7007" cy="54.1147" r="1.5" fill="black"/>
<circle cx="66.7007" cy="67.1147" r="1.5" fill="black"/>
</svg>
