<svg width="53" height="53" viewBox="0 0 53 53" fill="none" xmlns="http://www.w3.org/2000/svg">
<path d="M50.4917 6.70184H32.1067V12.6897H38.1889V16.7652H32.1067V20.7485H38.1267V24.7618H32.1067V28.7751H38.1267V32.7884H32.1067V36.8017H38.1267V40.815H32.1067V46.835H50.4917C51.4168 46.835 52.1733 46.0504 52.1733 45.0892V8.44764C52.1733 7.48645 51.4168 6.70184 50.4917 6.70184ZM48.16 40.815H40.1333V36.8017H48.16V40.815ZM48.16 32.7884H40.1333V28.7751H48.16V32.7884ZM48.16 24.7618H40.1333V20.7485H48.16V24.7618ZM48.16 16.7351H40.1333V12.7218H48.16V16.7351Z" fill="black"/>
<path d="M0 6.47912V47.0598L30.0999 52.855V0.681885L0 6.47912ZM19.0392 36.9623L15.5376 30.3423C15.4051 30.0955 15.2687 29.642 15.1262 28.9818H15.072C15.0058 29.2928 14.8493 29.7664 14.6025 30.4005L11.0888 36.9623H5.63269L12.1102 26.8006L6.18452 16.6368H11.755L14.6606 22.7311C14.8874 23.2127 15.0901 23.7845 15.2707 24.4447H15.3269C15.4412 24.0474 15.6539 23.4575 15.965 22.6729L19.1957 16.6348H24.2966L18.2024 26.7123L24.4672 36.9603L19.0392 36.9623Z" fill="black"/>
</svg>
