<svg width="52" height="52" viewBox="0 0 52 52" fill="none" xmlns="http://www.w3.org/2000/svg">
<path d="M20.9955 11.1924C23.4029 12.9301 26.8401 13.4061 30.0376 11.2044C31.8553 12.6467 32.8751 14.519 32.9922 16.8466C33.048 17.9409 33.0163 19.0472 33.0043 20.1481C32.9944 21.0553 32.363 21.6801 31.4504 21.6878C30.1503 21.6987 28.8492 21.6878 27.5492 21.6878H27.0327V24.8886H40.2037C43.1276 24.8886 45.0361 26.7795 44.9978 29.7122C44.9857 30.5986 45.0744 31.1884 46.0056 31.7093C47.786 32.7051 48.4295 34.9309 47.7565 36.8657C47.4329 37.8023 46.8094 38.606 45.9826 39.1522C45.1558 39.6985 44.1719 39.9567 43.1834 39.887C41.2137 39.7513 39.4935 38.2456 39.1137 36.3284C38.7056 34.2711 39.6685 32.2696 41.5321 31.3745C41.8932 31.2005 42.064 31.0155 42.0224 30.6019C41.9808 30.1883 42.0224 29.768 42.0092 29.3522C41.9731 28.5501 41.3702 27.9045 40.5724 27.9023C36.0858 27.8913 31.5992 27.9023 27.1191 27.9023C27.0813 27.9136 27.0446 27.9286 27.0097 27.9471C27.0097 28.9451 26.9977 29.9727 27.0272 30.998C27.0272 31.1075 27.2614 31.23 27.408 31.3055C29.137 32.2094 30.0344 33.6276 29.996 35.582C29.9632 37.3581 28.7825 38.959 27.1005 39.5992C26.0232 40.0107 24.8288 39.9916 23.7652 39.5458C22.7016 39.1001 21.8505 38.2618 21.3886 37.2052C20.9266 36.1485 20.8893 34.9545 21.2844 33.8711C21.6794 32.7876 22.4765 31.8979 23.5102 31.3865C23.9019 31.1983 24.0343 30.9969 24.0157 30.5702C23.9774 29.7068 24.0037 28.839 24.0037 27.8979H10.7539C9.58084 27.8979 9.00305 28.4757 8.99758 29.6411C8.99868 29.6579 8.99868 29.6747 8.99758 29.6914C8.87721 30.5975 9.07309 31.1983 10.0087 31.729C11.7837 32.7358 12.4162 34.9583 11.7366 36.8941C11.4077 37.8302 10.7789 38.6314 9.94773 39.1732C9.11659 39.715 8.12973 39.9671 7.14056 39.8903C5.17082 39.7404 3.45934 38.2324 3.09166 36.3119C2.69443 34.2437 3.66069 32.251 5.5396 31.3668C5.92479 31.1852 6.02 30.9718 6.01124 30.5811C5.99592 29.9497 5.97732 29.3063 6.078 28.6869C6.44349 26.4414 8.26659 24.9017 10.546 24.8951C14.8138 24.8842 19.0815 24.8951 23.3493 24.8951H23.9741V21.691H20.3739C20.0576 21.691 19.7403 21.7042 19.424 21.691C18.7106 21.6473 18.0419 21.1187 18.0343 20.4184C18.0179 18.6423 17.7957 16.8477 18.3035 15.099C18.7631 13.5057 19.667 12.2199 20.9955 11.1924Z" fill="black"/>
<path d="M32.9736 51.8794H17.9817C18.1404 49.67 17.7191 47.4628 18.31 45.3005C18.7324 43.7532 19.7884 42.2649 21.0074 41.4311C24.0014 43.4008 27.0064 43.4085 30.0354 41.4157C31.7436 42.7552 32.8029 44.494 32.9539 46.6596C33.0688 48.3809 32.9736 50.1165 32.9736 51.8794Z" fill="black"/>
<path d="M14.9987 51.9035H1.80911C0.544099 51.9035 -0.031502 51.3465 0.00132692 50.0683C0.0374387 48.6064 0.00132707 47.1236 0.226752 45.6912C0.512364 43.9206 1.54866 42.5177 2.97453 41.4234C5.97838 43.3931 8.96909 43.4139 12.0134 41.4234C12.9306 42.1107 13.6769 43.0002 14.1944 44.0228C14.712 45.0453 14.9868 46.1734 14.9976 47.3195C15.003 48.8307 14.9987 50.343 14.9987 51.9035Z" fill="black"/>
<path d="M35.9785 51.9035C36.1492 49.6689 35.717 47.4727 36.3068 45.3268C36.7511 43.7182 37.6747 42.4247 38.9878 41.4179C42.0125 43.3931 45.0065 43.4052 48.0344 41.4179C49.5872 42.6217 50.6377 44.1865 50.8796 46.1508C51.0579 47.5985 51.0098 49.078 50.989 50.5422C50.9791 51.3498 50.2865 51.8991 49.422 51.9035C47.8549 51.9112 46.2879 51.9035 44.7165 51.9035H35.9785Z" fill="black"/>
<path d="M21.0042 5.15401C21.0099 4.26298 21.2799 3.39368 21.7801 2.65625C22.2803 1.91883 22.9881 1.34646 23.8139 1.01166C24.6396 0.676871 25.5462 0.594717 26.4187 0.775611C27.2912 0.956506 28.0903 1.39231 28.7149 2.0278C29.3395 2.6633 29.7614 3.46989 29.9272 4.34539C30.093 5.22089 29.9952 6.12589 29.6461 6.94574C29.2971 7.76559 28.7126 8.46339 27.9666 8.95073C27.2206 9.43808 26.3468 9.69304 25.4558 9.68331C24.2664 9.66831 23.131 9.18384 22.2972 8.33546C21.4634 7.48708 20.9986 6.34354 21.0042 5.15401Z" fill="black"/>
</svg>
