<svg width="210" height="138" viewBox="0 0 210 138" fill="none" xmlns="http://www.w3.org/2000/svg">
<path d="M134.975 52.9686L143.927 80.4183C144.593 82.342 146.961 83.0819 148.514 81.7501L175.298 59.6276C175.298 59.6276 146.813 48.5293 146.813 49.1212C146.887 49.7871 134.975 52.9686 134.975 52.9686Z" fill="black"/>
<path d="M205.707 0.214784C188.172 7.1697 131.719 30.2541 110.336 39.0588C107.525 40.2426 107.673 44.238 110.558 45.1998L134.974 52.9686L143.927 80.3443C144.297 81.4542 145.185 82.1201 146.221 82.342C147.035 82.49 148.292 60.2195 148.292 60.2195C148.292 60.2195 173.966 79.2345 186.101 88.2611C189.134 90.4808 193.351 88.779 194.091 85.1536C197.717 66.4345 206.817 19.7478 209.851 3.76623C210.295 1.32461 207.927 -0.673079 205.707 0.214784Z" fill="#494949"/>
<path d="M146.221 82.342C147.035 82.49 148.293 60.2194 148.293 60.2194L190.466 20.6356C190.762 20.3396 190.392 19.8957 190.096 20.1177L135.049 53.0426L144.001 80.4183C144.297 81.4542 145.185 82.194 146.221 82.342Z" fill="#121212"/>
<path d="M0.09375 136.132C29.0233 136.058 67.5713 119.706 75.2661 88.3351C78.3736 75.6831 75.636 62.1432 65.5736 52.8946C52.9215 41.2044 39.0117 51.8588 42.4152 68.2103C48.0383 94.9941 80.7412 114.823 105.601 115.045C119.955 115.193 133.421 108.312 138.6 94.2542" stroke="#FFCB0B" stroke-width="2" stroke-miterlimit="10" stroke-dasharray="5 5"/>
</svg>
