<svg width="152" height="48" viewBox="0 0 152 48" fill="none" xmlns="http://www.w3.org/2000/svg">
<path d="M29.8235 32.797V37.627H34.3694C35.2544 37.6393 36.13 37.4448 36.9265 37.0588C37.1981 36.8669 37.418 36.6109 37.5667 36.3134C37.7154 36.016 37.7883 35.6865 37.7789 35.3541C37.8227 35.0174 37.765 34.6752 37.6132 34.3715C37.4613 34.0678 37.2222 33.8163 36.9265 33.6494C36.13 33.2634 35.2544 33.0688 34.3694 33.0811H29.8235V32.797ZM29.8235 47.8553H26.6982V30.2399H34.9377C36.6268 30.1059 38.3156 30.5033 39.7677 31.3764C40.309 31.7619 40.7475 32.2744 41.0447 32.8688C41.3419 33.4632 41.4888 34.1215 41.4724 34.7858C41.4535 35.5762 41.2595 36.3525 40.9042 37.0588C40.7299 37.3978 40.4891 37.6983 40.1962 37.9424C39.9034 38.1865 39.5644 38.3691 39.1995 38.4794C40.1236 38.7828 40.9223 39.3818 41.4724 40.1841C42.0493 41.0175 42.3476 42.012 42.3248 43.0253C42.3411 43.6897 42.1943 44.3479 41.8971 44.9423C41.5999 45.5367 41.1614 46.0492 40.6201 46.4347C39.0769 47.341 37.2877 47.7386 35.5059 47.5712H30.96L32.6647 45.0141H35.2218C37.7789 45.0141 38.9153 44.1618 38.9153 42.457C38.9153 40.7523 37.7789 39.9 35.2218 39.9H29.8235V47.8553Z" fill="black"/>
<path d="M49.1204 40.1839V45.0139H59.0646V47.8551H45.9951V30.2397H59.0646V33.0809H49.1204V37.6268V40.1839Z" fill="black"/>
<path d="M59.0649 37.6271H51.9619V40.1841H59.0649V37.6271Z" fill="#FDC90E"/>
<path d="M66.1428 40.1839V45.0139H76.087V47.8551H62.7334V30.2397H76.087V33.0809H66.1428V37.6268V40.1839Z" fill="black"/>
<path d="M75.8022 37.6271H68.6992V40.1841H75.8022V37.6271Z" fill="#FDC90E"/>
<path d="M123.147 39.8997V44.7297H133.091V47.5709H120.021V29.9556H133.091V32.7968H123.147V37.3426V39.8997Z" fill="black"/>
<path d="M133.088 37.3429H125.985V39.9H133.088V37.3429Z" fill="#FDC90E"/>
<path d="M92.1771 32.7971V38.1953H100.701V41.0365H92.1771V47.8553H89.0518V30.24H101.837V33.0812H92.1771V32.7971Z" fill="black"/>
<path d="M104.962 29.9556H108.087V44.7297H117.179V47.5709H104.678V29.9556H104.962Z" fill="black"/>
<path d="M147.864 29.9556L144.454 34.7856L146.159 37.3426L151.273 29.9556H147.864Z" fill="#FDC90E"/>
<path d="M134.794 47.571H138.487L142.465 41.8887L140.76 39.6157L134.794 47.571Z" fill="black"/>
<path d="M139.057 29.9556H135.363L148.149 47.5709H151.842L139.057 29.9556Z" fill="black"/>
<path d="M7.10119 19.4564C7.38518 15.7645 7.38518 12.0726 7.38518 8.38069L7.10119 8.66469C9.37312 7.52872 12.213 5.82477 14.201 4.6888C14.997 4.28047 15.757 3.80545 16.4729 3.26884H15.9049C18.4608 4.97279 23.2887 7.52872 25.8446 8.94868L25.5606 8.38069C25.5606 12.0726 25.5606 15.7645 25.8446 19.4564L26.1286 19.1724C22.7207 21.1603 19.5968 22.8643 16.4729 24.8522C19.7791 23.3191 23.0021 21.6128 26.1286 19.7404L26.4126 19.4564V8.38069C26.4126 8.0967 26.4126 8.0967 26.1286 7.81271C23.0065 5.84663 19.7835 4.04555 16.4729 2.41687H15.9049C15.2923 2.95651 14.6262 3.43229 13.917 3.83683L9.08913 6.67674L6.81719 8.0967L6.5332 8.38069C6.5332 12.0726 6.8172 15.7645 7.10119 19.4564Z" fill="#FDC90E"/>
<path d="M7.66777 37.3476C5.39584 35.9276 3.12391 34.5077 0.567983 33.0877L0.851975 33.3717V25.136L0.567983 25.42C2.55592 24.284 6.24781 22.296 7.95176 21.1601H7.38378C8.80374 21.7281 9.9397 22.58 11.0757 23.148C12.2445 23.9195 13.4801 24.5849 14.7676 25.136L14.4836 24.852C14.4836 27.6919 14.7676 30.5318 14.7676 33.0877C15.0516 30.2478 15.0516 27.4079 15.0516 24.852C15.0516 24.7767 15.0216 24.7044 14.9684 24.6512C14.9151 24.5979 14.8429 24.568 14.7676 24.568C13.7683 23.8415 12.725 23.1776 11.6437 22.58C10.3748 21.8867 9.14249 21.1284 7.95176 20.3081H7.38378C5.67983 21.4441 1.98794 23.432 0.283992 24.568C0.208672 24.568 0.136438 24.5979 0.0831793 24.6512C0.0299206 24.7044 0 24.7767 0 24.852V33.0877C0 33.163 0.0299206 33.2353 0.0831793 33.2885C0.136438 33.3418 0.208672 33.3717 0.283992 33.3717C2.83992 34.7917 5.11185 36.2116 7.66777 37.3476Z" fill="#FDC90E"/>
<path d="M20.4482 44.4474C18.4602 45.5834 16.4723 46.4353 14.4843 47.5713H14.7683L9.08849 44.1634L9.37248 44.4474V37.9156L9.08849 38.1996L14.7683 34.7917H14.4843C16.4723 35.9276 18.4602 36.7796 20.4482 37.9156C18.4602 36.7796 16.7563 35.6437 14.7683 34.5077H14.4843C12.6526 35.6572 10.7562 36.7002 8.8045 37.6316L8.52051 37.9156V44.4474C8.52051 44.5227 8.55043 44.595 8.60369 44.6482C8.65695 44.7015 8.72918 44.7314 8.8045 44.7314C10.6362 45.8809 12.5326 46.9239 14.4843 47.8553H14.7683C16.7563 46.7193 18.7442 45.5834 20.4482 44.4474Z" fill="#FDC90E"/>
<path d="M26.6982 7.24457C30.6741 5.25662 34.65 2.98469 38.6259 0.99675H38.0579C40.6138 2.7007 44.0217 4.68864 46.5777 6.1086C47.4296 6.67658 48.5656 7.24456 49.4176 7.81255L49.1336 7.24457V20.5922L49.4176 20.0242C46.5777 21.7281 43.4537 23.4321 40.8978 25.136L38.0579 26.84H38.6259L35.786 25.136C32.9461 23.4321 29.8222 22.0121 26.9822 20.5922C29.8222 22.2961 32.6621 24.2841 35.502 25.988L38.3419 27.692H38.9099L41.7498 25.988C44.5897 24.5681 47.7136 22.5801 50.5535 21.1602C50.8375 21.1602 50.8375 20.8762 50.8375 20.5922V7.24457C50.8075 7.02928 50.7078 6.82976 50.5535 6.67658C49.7016 6.1086 48.5656 5.54062 47.7136 4.97263C46.0097 4.12066 43.4537 2.7007 41.7498 1.84872L38.9099 0.144775H38.3419C34.366 2.41671 30.3901 4.97263 26.6982 7.24457Z" fill="#FDC90E"/>
</svg>
