<svg width="61" height="64" viewBox="0 0 61 64" fill="none" xmlns="http://www.w3.org/2000/svg">
<g clip-path="url(#clip0_192_2143)">
<path d="M58.6527 37.8441L58.6527 63.9351L32.2007 63.9351L32.2007 37.8441C32.2007 28.2561 33.921 20.5347 37.3617 14.6801C40.803 8.74072 46.2654 4.15906 53.7487 0.935058L60.2007 10.7351C55.6305 12.5646 51.8114 15.883 49.3617 20.1531C47.039 24.2257 45.7487 30.1227 45.4907 37.8441L58.6527 37.8441Z" fill="#FFCB0B"/>
<path d="M26.6527 37.8441L26.6527 63.9351L0.200684 63.9351L0.200686 37.8441C0.200687 28.2561 1.92102 20.5347 5.36169 14.6801C8.80302 8.74072 14.2654 4.15906 21.7487 0.935058L28.2007 10.7351C23.6305 12.5646 19.8114 15.883 17.3617 20.1531C15.039 24.2257 13.7487 30.1227 13.4907 37.8441L26.6527 37.8441Z" fill="#FFCB0B"/>
</g>
<defs>
<clipPath id="clip0_192_2143">
<rect width="60" height="63" fill="white" transform="translate(60.2007 63.9351) rotate(-180)"/>
</clipPath>
</defs>
</svg>
