<svg width="55" height="54" viewBox="0 0 55 54" fill="none" xmlns="http://www.w3.org/2000/svg">
<path d="M34.9299 34.7076L32.6245 42.9956C32.5977 43.0949 32.5396 43.1824 32.4608 43.2487L25.372 49.1436C25.2799 49.2195 25.1663 49.2599 25.0501 49.2599C25 49.2599 24.9517 49.2526 24.9026 49.2375C24.7399 49.1875 24.6137 49.0596 24.5663 48.8968L22.1312 40.5283C20.357 40.5999 18.7911 40.1939 17.5026 39.3086L14.276 41.9592C14.0713 42.1263 13.7735 42.1093 13.5902 41.9172L11.1944 39.3963C11.1015 39.2987 11.0522 39.1673 11.0567 39.0314C11.0612 38.8964 11.1203 38.7685 11.2203 38.6772L14.4146 35.7477C14.1419 35.0038 13.6527 33.1499 14.1714 30.3294L5.96206 27.3319C5.80196 27.2737 5.6831 27.1387 5.64457 26.9732C5.6052 26.8078 5.65355 26.6343 5.77072 26.5109L12.1271 19.8326C12.2013 19.7547 12.297 19.7028 12.4034 19.6832L20.7763 18.1863C22.3521 16.3646 24.1853 14.5215 26.2269 12.7045C37.983 2.24334 47.1723 0.681885 51.6034 0.681885C53.0619 0.681885 53.8658 0.859007 53.8998 0.866114C54.0993 0.910815 54.2512 1.07176 54.2861 1.27301C54.3755 1.79343 56.2875 14.195 40.1487 30.3338C40.1273 30.3543 37.9642 32.4513 34.9299 34.7076ZM34.1671 25.6864C36.975 25.6864 39.251 23.4104 39.251 20.6025C39.251 17.7945 36.9751 15.5187 34.1671 15.5187C31.359 15.5187 29.0832 17.7945 29.0832 20.6025C29.0833 23.4104 31.3591 25.6864 34.1671 25.6864Z" fill="black"/>
<path d="M15.0316 43.8728C15.1407 43.7657 15.299 43.7227 15.4484 43.7592C15.5977 43.796 15.7175 43.9059 15.7658 44.0507L16.9221 47.4856C16.9775 47.6502 16.9328 47.8317 16.8076 47.9515L11.324 53.1927C11.24 53.2724 11.1299 53.3171 11.0145 53.3171H6.39204C6.20969 53.3171 6.04603 53.2062 5.97711 53.038C5.90912 52.869 5.95027 52.6758 6.08082 52.5489L15.0316 43.8728Z" fill="black"/>
<path d="M8.90772 41.0721C8.99263 40.9836 9.10981 40.7975 9.23147 40.7975C9.23503 40.7975 9.23858 40.7975 9.24307 40.7975C9.36922 40.7975 9.48715 40.9924 9.56945 41.0881L11.5574 43.5241C11.7094 43.7002 11.7014 43.9632 11.5386 44.1295L2.67834 53.1838C2.59436 53.2697 2.47887 53.3181 2.35907 53.3181H0.89431H0.447203C0.200317 53.3181 9.63211e-05 53.1177 9.63211e-05 52.871V50.7301C9.63211e-05 50.6156 0.0448933 50.4368 0.123448 50.3535L8.90772 41.0721Z" fill="black"/>
<path d="M0.13511 42.1738L6.53712 35.9335C6.68553 35.7877 6.9154 35.7655 7.08794 35.8764L9.70904 37.5361C9.82435 37.6095 9.89944 37.7301 9.91375 37.8653C9.92806 38.0003 9.88064 38.1353 9.78404 38.231L0.761027 47.1807C0.675178 47.2658 0.560709 47.3104 0.445309 47.3104C0.38817 47.3104 0.329067 47.2989 0.273611 47.2755C0.108179 47.2067 -1.71661e-05 47.0439 -1.71661e-05 46.8633V42.4932C7.62939e-05 42.3733 0.0492611 42.257 0.13511 42.1738Z" fill="black"/>
</svg>
